<mxfile host="app.diagrams.net" modified="2023-01-12T04:17:30.710Z" agent="5.0 (Windows NT 10.0; Win64; x64) AppleWebKit/537.36 (KHTML, like Gecko) Chrome/108.0.0.0 Safari/537.36 Edg/108.0.1462.54" etag="r5ex2EbGSWuPgpK-7yO6" version="20.8.0" type="github">
  <diagram id="YLXy55Rcbktlbufe7SZ2" name="Page-1">
    <mxGraphModel dx="1677" dy="1061" grid="0" gridSize="10" guides="1" tooltips="1" connect="1" arrows="1" fold="1" page="1" pageScale="1" pageWidth="827" pageHeight="1169" math="0" shadow="0">
      <root>
        <mxCell id="0" />
        <mxCell id="1" parent="0" />
        <mxCell id="ZrV3GZ-O5EyBI1yg1Ubn-31" value="" style="rounded=0;whiteSpace=wrap;html=1;fontSize=15;" parent="1" vertex="1">
          <mxGeometry x="39" y="25" width="716" height="135" as="geometry" />
        </mxCell>
        <mxCell id="ZrV3GZ-O5EyBI1yg1Ubn-1" value="" style="shape=document;whiteSpace=wrap;html=1;boundedLbl=1;" parent="1" vertex="1">
          <mxGeometry x="81" y="47" width="120" height="80" as="geometry" />
        </mxCell>
        <mxCell id="ZrV3GZ-O5EyBI1yg1Ubn-2" value="" style="shape=document;whiteSpace=wrap;html=1;boundedLbl=1;" parent="1" vertex="1">
          <mxGeometry x="71" y="57" width="120" height="80" as="geometry" />
        </mxCell>
        <mxCell id="ZrV3GZ-O5EyBI1yg1Ubn-3" value="&lt;font style=&quot;font-size: 15px;&quot;&gt;Verilog HDL&lt;br&gt;代码&lt;/font&gt;" style="shape=document;whiteSpace=wrap;html=1;boundedLbl=1;" parent="1" vertex="1">
          <mxGeometry x="61" y="67" width="120" height="80" as="geometry" />
        </mxCell>
        <mxCell id="ZrV3GZ-O5EyBI1yg1Ubn-4" value="" style="shape=flexArrow;endArrow=classic;html=1;rounded=0;fontSize=15;" parent="1" edge="1">
          <mxGeometry width="50" height="50" relative="1" as="geometry">
            <mxPoint x="211" y="86.5" as="sourcePoint" />
            <mxPoint x="271" y="87" as="targetPoint" />
          </mxGeometry>
        </mxCell>
        <mxCell id="ZrV3GZ-O5EyBI1yg1Ubn-13" style="edgeStyle=orthogonalEdgeStyle;rounded=0;orthogonalLoop=1;jettySize=auto;html=1;exitX=1;exitY=0.5;exitDx=0;exitDy=0;entryX=0.083;entryY=0.5;entryDx=0;entryDy=0;entryPerimeter=0;fontSize=15;" parent="1" source="ZrV3GZ-O5EyBI1yg1Ubn-5" target="ZrV3GZ-O5EyBI1yg1Ubn-6" edge="1">
          <mxGeometry relative="1" as="geometry" />
        </mxCell>
        <mxCell id="ZrV3GZ-O5EyBI1yg1Ubn-5" value="语法分析" style="rounded=0;whiteSpace=wrap;html=1;fontSize=15;" parent="1" vertex="1">
          <mxGeometry x="441" y="57" width="100" height="60" as="geometry" />
        </mxCell>
        <mxCell id="ZrV3GZ-O5EyBI1yg1Ubn-6" value="抽象语法树" style="ellipse;shape=cloud;whiteSpace=wrap;html=1;fontSize=15;" parent="1" vertex="1">
          <mxGeometry x="581" y="47" width="120" height="80" as="geometry" />
        </mxCell>
        <mxCell id="ZrV3GZ-O5EyBI1yg1Ubn-12" style="edgeStyle=orthogonalEdgeStyle;rounded=0;orthogonalLoop=1;jettySize=auto;html=1;exitX=1;exitY=0.5;exitDx=0;exitDy=0;entryX=0;entryY=0.5;entryDx=0;entryDy=0;fontSize=15;" parent="1" source="ZrV3GZ-O5EyBI1yg1Ubn-8" target="ZrV3GZ-O5EyBI1yg1Ubn-5" edge="1">
          <mxGeometry relative="1" as="geometry" />
        </mxCell>
        <mxCell id="ZrV3GZ-O5EyBI1yg1Ubn-8" value="宏定义预处理" style="rounded=0;whiteSpace=wrap;html=1;fontSize=15;" parent="1" vertex="1">
          <mxGeometry x="281" y="57" width="106" height="60" as="geometry" />
        </mxCell>
        <mxCell id="ZrV3GZ-O5EyBI1yg1Ubn-30" style="edgeStyle=orthogonalEdgeStyle;rounded=0;orthogonalLoop=1;jettySize=auto;html=1;fontSize=15;entryX=0.5;entryY=1;entryDx=0;entryDy=0;" parent="1" source="ZrV3GZ-O5EyBI1yg1Ubn-17" target="ZrV3GZ-O5EyBI1yg1Ubn-5" edge="1">
          <mxGeometry relative="1" as="geometry">
            <mxPoint x="480" y="127" as="targetPoint" />
            <Array as="points">
              <mxPoint x="491" y="187" />
              <mxPoint x="491" y="187" />
            </Array>
          </mxGeometry>
        </mxCell>
        <mxCell id="ZrV3GZ-O5EyBI1yg1Ubn-17" value="增量编译" style="rounded=0;whiteSpace=wrap;html=1;fontSize=15;" parent="1" vertex="1">
          <mxGeometry x="436" y="217" width="110" height="50" as="geometry" />
        </mxCell>
        <mxCell id="ZrV3GZ-O5EyBI1yg1Ubn-20" value="二进制文件库" style="shape=cylinder3;whiteSpace=wrap;html=1;boundedLbl=1;backgroundOutline=1;size=15;fontSize=15;" parent="1" vertex="1">
          <mxGeometry x="621" y="202" width="60" height="80" as="geometry" />
        </mxCell>
        <mxCell id="ZrV3GZ-O5EyBI1yg1Ubn-25" value="" style="shape=flexArrow;endArrow=classic;html=1;rounded=0;fontSize=15;" parent="1" edge="1">
          <mxGeometry x="0.1999" width="50" height="50" relative="1" as="geometry">
            <mxPoint x="651" y="140" as="sourcePoint" />
            <mxPoint x="650.5" y="190" as="targetPoint" />
            <mxPoint as="offset" />
          </mxGeometry>
        </mxCell>
        <mxCell id="ZrV3GZ-O5EyBI1yg1Ubn-27" value="" style="shape=flexArrow;endArrow=classic;html=1;rounded=0;fontSize=15;" parent="1" edge="1">
          <mxGeometry width="50" height="50" relative="1" as="geometry">
            <mxPoint x="607" y="242" as="sourcePoint" />
            <mxPoint x="561" y="241.5" as="targetPoint" />
          </mxGeometry>
        </mxCell>
        <mxCell id="ZrV3GZ-O5EyBI1yg1Ubn-28" value="" style="endArrow=classic;html=1;rounded=0;fontSize=15;exitX=0.444;exitY=0.971;exitDx=0;exitDy=0;exitPerimeter=0;entryX=0;entryY=0.5;entryDx=0;entryDy=0;" parent="1" source="ZrV3GZ-O5EyBI1yg1Ubn-3" target="ZrV3GZ-O5EyBI1yg1Ubn-17" edge="1">
          <mxGeometry width="50" height="50" relative="1" as="geometry">
            <mxPoint x="401" y="17" as="sourcePoint" />
            <mxPoint x="451" y="-33" as="targetPoint" />
            <Array as="points">
              <mxPoint x="114" y="242" />
            </Array>
          </mxGeometry>
        </mxCell>
        <mxCell id="cN_vfJrOgsHuvGevLw2_-9" value="" style="edgeStyle=orthogonalEdgeStyle;rounded=0;orthogonalLoop=1;jettySize=auto;html=1;fontSize=15;entryX=0.5;entryY=0;entryDx=0;entryDy=0;" edge="1" parent="1" source="cN_vfJrOgsHuvGevLw2_-1" target="cN_vfJrOgsHuvGevLw2_-6">
          <mxGeometry relative="1" as="geometry" />
        </mxCell>
        <mxCell id="cN_vfJrOgsHuvGevLw2_-1" value="读入一个模块的代码" style="rounded=0;whiteSpace=wrap;html=1;fontSize=15;" vertex="1" parent="1">
          <mxGeometry x="195" y="295" width="155" height="33" as="geometry" />
        </mxCell>
        <mxCell id="cN_vfJrOgsHuvGevLw2_-10" value="" style="edgeStyle=orthogonalEdgeStyle;rounded=0;orthogonalLoop=1;jettySize=auto;html=1;fontSize=15;entryX=0.5;entryY=0;entryDx=0;entryDy=0;" edge="1" parent="1" source="cN_vfJrOgsHuvGevLw2_-6" target="cN_vfJrOgsHuvGevLw2_-7">
          <mxGeometry relative="1" as="geometry" />
        </mxCell>
        <mxCell id="cN_vfJrOgsHuvGevLw2_-6" value="预处理" style="rounded=0;whiteSpace=wrap;html=1;fontSize=15;" vertex="1" parent="1">
          <mxGeometry x="195" y="352" width="155" height="33" as="geometry" />
        </mxCell>
        <mxCell id="cN_vfJrOgsHuvGevLw2_-11" value="" style="edgeStyle=orthogonalEdgeStyle;rounded=0;orthogonalLoop=1;jettySize=auto;html=1;fontSize=15;" edge="1" parent="1" source="cN_vfJrOgsHuvGevLw2_-7" target="cN_vfJrOgsHuvGevLw2_-8">
          <mxGeometry relative="1" as="geometry" />
        </mxCell>
        <mxCell id="cN_vfJrOgsHuvGevLw2_-17" value="" style="edgeStyle=orthogonalEdgeStyle;rounded=0;orthogonalLoop=1;jettySize=auto;html=1;fontSize=15;" edge="1" parent="1" source="cN_vfJrOgsHuvGevLw2_-7" target="cN_vfJrOgsHuvGevLw2_-16">
          <mxGeometry relative="1" as="geometry" />
        </mxCell>
        <mxCell id="cN_vfJrOgsHuvGevLw2_-7" value="语法分析" style="rounded=0;whiteSpace=wrap;html=1;fontSize=15;" vertex="1" parent="1">
          <mxGeometry x="195" y="412" width="155" height="33" as="geometry" />
        </mxCell>
        <mxCell id="cN_vfJrOgsHuvGevLw2_-13" value="是" style="edgeStyle=orthogonalEdgeStyle;rounded=0;orthogonalLoop=1;jettySize=auto;html=1;fontSize=15;" edge="1" parent="1" source="cN_vfJrOgsHuvGevLw2_-8" target="cN_vfJrOgsHuvGevLw2_-12">
          <mxGeometry relative="1" as="geometry" />
        </mxCell>
        <mxCell id="cN_vfJrOgsHuvGevLw2_-15" value="否" style="edgeStyle=orthogonalEdgeStyle;rounded=0;orthogonalLoop=1;jettySize=auto;html=1;entryX=0;entryY=0.5;entryDx=0;entryDy=0;fontSize=15;" edge="1" parent="1" source="cN_vfJrOgsHuvGevLw2_-8" target="cN_vfJrOgsHuvGevLw2_-1">
          <mxGeometry relative="1" as="geometry">
            <Array as="points">
              <mxPoint x="128" y="508" />
              <mxPoint x="128" y="312" />
            </Array>
          </mxGeometry>
        </mxCell>
        <mxCell id="cN_vfJrOgsHuvGevLw2_-8" value="判断是否存在&lt;br&gt;模块间的依赖关系" style="rhombus;whiteSpace=wrap;html=1;fontSize=15;" vertex="1" parent="1">
          <mxGeometry x="175.5" y="468" width="194" height="80" as="geometry" />
        </mxCell>
        <mxCell id="cN_vfJrOgsHuvGevLw2_-14" style="edgeStyle=orthogonalEdgeStyle;rounded=0;orthogonalLoop=1;jettySize=auto;html=1;entryX=1;entryY=0.25;entryDx=0;entryDy=0;fontSize=15;" edge="1" parent="1" source="cN_vfJrOgsHuvGevLw2_-12" target="cN_vfJrOgsHuvGevLw2_-1">
          <mxGeometry relative="1" as="geometry">
            <Array as="points">
              <mxPoint x="561" y="613" />
              <mxPoint x="561" y="303" />
            </Array>
          </mxGeometry>
        </mxCell>
        <mxCell id="cN_vfJrOgsHuvGevLw2_-12" value="将依赖关系存储到全局依赖表中" style="rounded=0;whiteSpace=wrap;html=1;fontSize=15;" vertex="1" parent="1">
          <mxGeometry x="200" y="582" width="145" height="61" as="geometry" />
        </mxCell>
        <mxCell id="cN_vfJrOgsHuvGevLw2_-16" value="将抽象语法树结构&lt;br&gt;存储到二进制文件中" style="whiteSpace=wrap;html=1;fontSize=15;rounded=0;" vertex="1" parent="1">
          <mxGeometry x="375" y="406.13" width="170" height="44.75" as="geometry" />
        </mxCell>
        <mxCell id="cN_vfJrOgsHuvGevLw2_-47" value="" style="edgeStyle=orthogonalEdgeStyle;rounded=0;orthogonalLoop=1;jettySize=auto;html=1;fontSize=15;" edge="1" parent="1" source="cN_vfJrOgsHuvGevLw2_-18" target="cN_vfJrOgsHuvGevLw2_-32">
          <mxGeometry relative="1" as="geometry" />
        </mxCell>
        <mxCell id="cN_vfJrOgsHuvGevLw2_-18" value="模块名" style="shape=tape;whiteSpace=wrap;html=1;fontSize=15;" vertex="1" parent="1">
          <mxGeometry x="329" y="675" width="83" height="65" as="geometry" />
        </mxCell>
        <mxCell id="cN_vfJrOgsHuvGevLw2_-48" value="" style="edgeStyle=orthogonalEdgeStyle;rounded=0;orthogonalLoop=1;jettySize=auto;html=1;fontSize=15;" edge="1" parent="1" source="cN_vfJrOgsHuvGevLw2_-32" target="cN_vfJrOgsHuvGevLw2_-41">
          <mxGeometry relative="1" as="geometry" />
        </mxCell>
        <mxCell id="cN_vfJrOgsHuvGevLw2_-32" value="根据依赖表获取所有需要重新编译的模块名列表" style="rounded=0;whiteSpace=wrap;html=1;fontSize=15;" vertex="1" parent="1">
          <mxGeometry x="282" y="764" width="177" height="49" as="geometry" />
        </mxCell>
        <mxCell id="cN_vfJrOgsHuvGevLw2_-40" value="" style="edgeStyle=orthogonalEdgeStyle;rounded=0;orthogonalLoop=1;jettySize=auto;html=1;fontSize=15;" edge="1" parent="1" source="cN_vfJrOgsHuvGevLw2_-35" target="cN_vfJrOgsHuvGevLw2_-32">
          <mxGeometry relative="1" as="geometry" />
        </mxCell>
        <mxCell id="cN_vfJrOgsHuvGevLw2_-59" value="" style="edgeStyle=orthogonalEdgeStyle;rounded=0;orthogonalLoop=1;jettySize=auto;html=1;fontSize=15;" edge="1" parent="1" source="cN_vfJrOgsHuvGevLw2_-35" target="cN_vfJrOgsHuvGevLw2_-58">
          <mxGeometry relative="1" as="geometry" />
        </mxCell>
        <mxCell id="cN_vfJrOgsHuvGevLw2_-35" value="旧的二进制文件库" style="shape=cylinder3;whiteSpace=wrap;html=1;boundedLbl=1;backgroundOutline=1;size=15;fontSize=15;" vertex="1" parent="1">
          <mxGeometry x="550.5" y="748.75" width="83" height="79.5" as="geometry" />
        </mxCell>
        <mxCell id="cN_vfJrOgsHuvGevLw2_-50" value="" style="edgeStyle=orthogonalEdgeStyle;rounded=0;orthogonalLoop=1;jettySize=auto;html=1;fontSize=15;" edge="1" parent="1" source="cN_vfJrOgsHuvGevLw2_-41" target="cN_vfJrOgsHuvGevLw2_-49">
          <mxGeometry relative="1" as="geometry" />
        </mxCell>
        <mxCell id="cN_vfJrOgsHuvGevLw2_-41" value="读入一个模块的代码" style="rounded=0;whiteSpace=wrap;html=1;fontSize=15;" vertex="1" parent="1">
          <mxGeometry x="290" y="837" width="161" height="38" as="geometry" />
        </mxCell>
        <mxCell id="cN_vfJrOgsHuvGevLw2_-52" value="是" style="edgeStyle=orthogonalEdgeStyle;rounded=0;orthogonalLoop=1;jettySize=auto;html=1;fontSize=15;" edge="1" parent="1" source="cN_vfJrOgsHuvGevLw2_-49" target="cN_vfJrOgsHuvGevLw2_-51">
          <mxGeometry relative="1" as="geometry" />
        </mxCell>
        <mxCell id="cN_vfJrOgsHuvGevLw2_-57" value="否" style="edgeStyle=orthogonalEdgeStyle;rounded=0;orthogonalLoop=1;jettySize=auto;html=1;fontSize=15;" edge="1" parent="1" source="cN_vfJrOgsHuvGevLw2_-49">
          <mxGeometry relative="1" as="geometry">
            <mxPoint x="519.3333740234375" y="942.5" as="targetPoint" />
          </mxGeometry>
        </mxCell>
        <mxCell id="cN_vfJrOgsHuvGevLw2_-49" value="判断模块名是否在需要&lt;br&gt;重新编译的模块名列表中" style="rhombus;whiteSpace=wrap;html=1;fontSize=15;" vertex="1" parent="1">
          <mxGeometry x="258.25" y="899" width="224.5" height="87" as="geometry" />
        </mxCell>
        <mxCell id="cN_vfJrOgsHuvGevLw2_-56" value="" style="edgeStyle=orthogonalEdgeStyle;rounded=0;orthogonalLoop=1;jettySize=auto;html=1;fontSize=15;" edge="1" parent="1" source="cN_vfJrOgsHuvGevLw2_-51" target="cN_vfJrOgsHuvGevLw2_-55">
          <mxGeometry relative="1" as="geometry" />
        </mxCell>
        <mxCell id="cN_vfJrOgsHuvGevLw2_-64" style="edgeStyle=orthogonalEdgeStyle;rounded=0;orthogonalLoop=1;jettySize=auto;html=1;entryX=0;entryY=0.5;entryDx=0;entryDy=0;fontSize=15;" edge="1" parent="1" source="cN_vfJrOgsHuvGevLw2_-51" target="cN_vfJrOgsHuvGevLw2_-41">
          <mxGeometry relative="1" as="geometry">
            <Array as="points">
              <mxPoint x="185" y="1056" />
              <mxPoint x="185" y="856" />
            </Array>
          </mxGeometry>
        </mxCell>
        <mxCell id="cN_vfJrOgsHuvGevLw2_-51" value="对模块进行语法分析" style="rounded=0;whiteSpace=wrap;html=1;fontSize=15;" vertex="1" parent="1">
          <mxGeometry x="293" y="1035" width="151" height="41" as="geometry" />
        </mxCell>
        <mxCell id="cN_vfJrOgsHuvGevLw2_-55" value="新的二进制文件库" style="shape=cylinder3;whiteSpace=wrap;html=1;boundedLbl=1;backgroundOutline=1;size=15;fontSize=15;" vertex="1" parent="1">
          <mxGeometry x="548.5" y="1016.25" width="87" height="78.5" as="geometry" />
        </mxCell>
        <mxCell id="cN_vfJrOgsHuvGevLw2_-60" value="" style="edgeStyle=orthogonalEdgeStyle;rounded=0;orthogonalLoop=1;jettySize=auto;html=1;fontSize=15;" edge="1" parent="1" source="cN_vfJrOgsHuvGevLw2_-58" target="cN_vfJrOgsHuvGevLw2_-55">
          <mxGeometry relative="1" as="geometry" />
        </mxCell>
        <mxCell id="cN_vfJrOgsHuvGevLw2_-63" style="edgeStyle=orthogonalEdgeStyle;rounded=0;orthogonalLoop=1;jettySize=auto;html=1;entryX=1;entryY=0.5;entryDx=0;entryDy=0;fontSize=15;" edge="1" parent="1" source="cN_vfJrOgsHuvGevLw2_-58" target="cN_vfJrOgsHuvGevLw2_-41">
          <mxGeometry x="-1" y="-143" relative="1" as="geometry">
            <Array as="points">
              <mxPoint x="703" y="943" />
              <mxPoint x="703" y="856" />
            </Array>
            <mxPoint x="133" y="91" as="offset" />
          </mxGeometry>
        </mxCell>
        <mxCell id="cN_vfJrOgsHuvGevLw2_-58" value="将之前编译的抽象语法树读入" style="rounded=0;whiteSpace=wrap;html=1;fontSize=15;" vertex="1" parent="1">
          <mxGeometry x="532" y="912.5" width="120" height="60" as="geometry" />
        </mxCell>
      </root>
    </mxGraphModel>
  </diagram>
</mxfile>
